<svg xmlns="http://www.w3.org/2000/svg" width="60" height="60" viewBox="0 0 60 60">
  <g id="Group_466" data-name="Group 466" transform="translate(-278.1 -2823)">
    <path id="Path_361" data-name="Path 361" d="M41.4,30.2,28.7,22.9a1.817,1.817,0,0,0-2,0,2.1,2.1,0,0,0-1,1.8V39.4a2.234,2.234,0,0,0,1,1.8,1.929,1.929,0,0,0,1,.3,1.689,1.689,0,0,0,1-.3l12.7-7.3a2.1,2.1,0,0,0,1-1.8A2.276,2.276,0,0,0,41.4,30.2Z" transform="translate(276.732 2821.016)" fill="#00a6d2"/>
    <path id="Path_362" data-name="Path 362" d="M64.69,25.413A30.057,30.057,0,0,0,58.3,15.9,28.178,28.178,0,0,0,48.787,9.51,30.07,30.07,0,0,0,15.9,15.9,28.178,28.178,0,0,0,9.51,25.413,30.07,30.07,0,0,0,15.9,58.3a28.178,28.178,0,0,0,9.518,6.386A30.07,30.07,0,0,0,58.3,58.3a28.178,28.178,0,0,0,6.386-9.518,29.545,29.545,0,0,0,0-23.373ZM37.1,62.521A25.422,25.422,0,1,1,62.522,37.1,25.5,25.5,0,0,1,37.1,62.521Z" transform="translate(271 2815.9)" fill="#00a6d2"/>
  </g>
</svg>
