<svg xmlns="http://www.w3.org/2000/svg" width="613.73" height="79.361" viewBox="0 0 613.73 79.361">
  <g id="Group_1747" data-name="Group 1747" transform="translate(-55.593 -29.5)">
    <path id="Path_2" data-name="Path 2" d="M109.465,50.721a13.049,13.049,0,1,1-13.048,13.05,13.075,13.075,0,0,1,13.048-13.05" transform="translate(-0.371 -0.193)" fill="#171412" fill-rule="evenodd"/>
    <path id="Path_3" data-name="Path 3" d="M103.84,80c-5.358-.015-8.905-2.752-10.576-7.124S91.8,62.392,91.8,55.765c0-6.226.834-13.889-3.327-19.162a18.267,18.267,0,0,0-11.439-6.848c-4.963-.915-11.333.768-14.981,2.974a14.435,14.435,0,0,1,8.229,5.723c6.376,8.993,5.991,21.08,11.044,31.038,3.8,7.5,11.488,13.52,20.323,13.742l29.451-.012V49.412a22.082,22.082,0,0,0-5.792.242,27.1,27.1,0,0,0-6.557,1.92,15.328,15.328,0,0,1,2.288,2.317,16.028,16.028,0,0,1,3.162-1,18.351,18.351,0,0,1,3.679-.494V80" transform="translate(-0.059 0)" fill="#a9181b" fill-rule="evenodd"/>
    <path id="Path_4" data-name="Path 4" d="M100.009,90.286a44.558,44.558,0,0,1-13.668-2.008C76.67,85.009,70.887,77.294,67.524,68.13c-1.583-3.858-2.463-8.124-5.049-11.5A11.922,11.922,0,0,0,55.593,52.2a12.574,12.574,0,0,1,5.125-2.76c5.3-1.352,9.469,1.27,11.018,6.5,1.48,5,2.806,10.211,5.072,14.816,4.882,9.65,13.657,15.978,24.5,16.291l33.456.015.061-40.615c-6.8-1.4-13.441,0-19.483,3a14.8,14.8,0,0,0-4.316-1.19,32.894,32.894,0,0,1,23.3-5.047,12.14,12.14,0,0,1,3.688,1.088l-.023,45.991" transform="translate(0 -0.121)" fill="#a9181b" fill-rule="evenodd"/>
    <path id="Path_5" data-name="Path 5" d="M147.467,105.209c-1.949.085-2.417.085-4.7.085-.016-1.649-.032-2.133,0-4.147,2.054,0,2.43,0,4.184.052l.09-.124c.016-.552.016-.727.075-1.336l-.075-.119c-1.844.035-2.417.052-4.274.035,0-1.6,0-2.1.046-3.7,1.918.016,2.567.016,4.516.086l.091-.12c.03-.626.06-.835.105-1.354l-.091-.121c-2.779.035-3.368.035-6.344.051l-.09.119c.105,2,.105,3.663.105,6.578,0,3.176-.046,4.111-.09,5.481l.075.126c2.87-.035,3.338-.056,6.284-.056l.106-.119c.031-.592.031-.712.075-1.3m-9.095.57c-.031-1.628-.046-3.28-.046-4.909,0-2.134.03-4.3.061-6.419l-.092-.121c-.6.035-.753.051-1.434.051l-.091.119c.06,1.2.076,1.6.136,4.323l.121,5.759-1.873-3.8c-1-2.013-2.056-4.217-3.083-6.332l-.151-.121c-.862.035-1.013.035-1.947.051l-.076.119c.076,2.36.089,4.74.089,7.1,0,1.648-.013,3.315-.075,4.961l.09.126a13.22,13.22,0,0,1,1.451-.056l.092-.119c-.033-.712-.033-.75-.076-2.187-.016-.727-.047-1.439-.062-2.169l-.151-5.951,2.388,4.893c.908,1.819,1.8,3.643,2.688,5.463l.122.126c.907-.056.967-.056,1.859-.056l.075-.119Zm-11.1-11.449c-.6.035-.695.035-1.389.051l-.075.119c.105,1.979.121,4.528.121,6.543a7.912,7.912,0,0,1-.333,3.071,2.456,2.456,0,0,1-4.034.469c-.528-.712-.557-1.77-.557-3.5,0-1.685,0-4.825.058-6.627l-.076-.121c-.753.035-.859.035-1.69.051l-.107.119c.045,2.255.045,2.555.045,5.067v1.769c0,2.031,0,3.073.816,4.148a3.979,3.979,0,0,0,3.31,1.411,3.87,3.87,0,0,0,3.111-1.292,5.662,5.662,0,0,0,.876-3.625l-.015-1.561c-.015-1.3-.015-1.855-.015-2.6,0-1.37.015-1.785.046-3.364Zm-15.408,6.226c0-.781-.018-1.562-.018-2.343,0-.813.018-1.628.018-2.425a11.089,11.089,0,0,1,1.358-.07,2.173,2.173,0,0,1,2.283,1.213,3.028,3.028,0,0,1,.18,1.076,2.863,2.863,0,0,1-.257,1.25,2.336,2.336,0,0,1-2.026,1.231c-.406.053-1.027.053-1.538.069m.119,5.954c-.09-2.118-.09-2.672-.105-4.546.211,0,.407.015.68.015,1.8,0,3.491-.362,4.367-2.046a4.222,4.222,0,0,0,.452-1.943,3.431,3.431,0,0,0-2.115-3.42,7.35,7.35,0,0,0-2.492-.259l-1,.035c-.272,0-1.407.036-1.647.036l-.075.119c.135,2.639.135,5.4.135,8.087,0,2.033-.014,2.879-.045,3.972l.09.126a16.189,16.189,0,0,1,1.662-.056Z" transform="translate(-0.496 -0.59)" fill="#171412" fill-rule="evenodd"/>
    <path id="Path_6" data-name="Path 6" d="M98.694,96.946c.2,0,.648-.016.85-.016a1.227,1.227,0,0,1,1.379,1.354c0,1.581-1.635,1.564-2.264,1.548m.562,2.364,1.071,2.295.923,2.187.185.143,3.6-.159.066-.157-1.157-2.032-1.549-3.079a2.964,2.964,0,0,0,1.684-1.563,4.279,4.279,0,0,0,.393-1.842,3.51,3.51,0,0,0-1.193-2.8c-.987-.782-2.538-.765-4.223-.731l-.886.02H95.065l-.085.086c.119,1.616.187,2.624.187,5.4,0,2.244-.051,4.488-.086,6.731l.086.1,3.509-.055.1-.1c-.1-1.894-.12-2.347-.12-4.433Zm-6.828-.523.118-.1.136-2.278-.1-.124-3.73.069V97.033h3.934l.1-.087.119-2.4-.085-.066H85.222l-.1.1c.083,1.77.119,2.482.119,6.656,0,2.363-.016,3.44-.067,5.438l.083.126c1.618-.017,2.59-.055,4.464-.055.51,0,.9.023,3.234.023l.154-.109.169-2.572-.1-.105c-1.754.07-3,.105-4.327.105v-2.417ZM75,103.464c-.015,1.269-.034,1.476-.119,2.8l.138.172a7.981,7.981,0,0,0,3.167.58c1.72,0,3.458-.337,4.462-1.848a4.338,4.338,0,0,0,.683-2.276,3.325,3.325,0,0,0-.988-2.5,5.591,5.591,0,0,0-1.8-1.094l-.937-.4c-.376-.158-1.141-.47-1.141-1.133a1.1,1.1,0,0,1,.375-.8,1.467,1.467,0,0,1,.987-.26,3.729,3.729,0,0,1,1.822.52,6.113,6.113,0,0,1,.751.539l.153-.07L82.7,94.98l-.07-.1a7.308,7.308,0,0,0-3.252-.679,4.639,4.639,0,0,0-3.407,1.077,3.676,3.676,0,0,0-1.091,2.8c0,2.381,1.6,3.129,2.778,3.67l.85.345c.511.228,1.21.522,1.21,1.2,0,.3-.153,1.148-1.686,1.148a4.574,4.574,0,0,1-2.5-.727,3.5,3.5,0,0,1-.376-.3Zm-2.281,3.2c-.066-2.432-.121-4.917-.121-7.367,0-2,.036-3.044.088-4.782l-.068-.086c-1.67.069-2.028.069-3.7.053l-.084.086c.067,1.858.1,2.991.1,4.52,0,.991-.018,1.98-.035,2.972-.017,1.546-.034,3.092-.034,4.658l.068.088c1.687-.071,2.095-.071,3.714-.055Zm-6.386,0c-.068-2.432-.119-4.917-.119-7.367,0-2,.035-3.044.085-4.782l-.068-.086c-1.67.069-2.026.069-3.7.053l-.086.086c.067,1.858.1,2.991.1,4.52,0,.991-.016,1.98-.035,2.972-.016,1.546-.034,3.092-.034,4.658l.068.088c1.687-.071,2.095-.071,3.713-.055Z" transform="translate(-0.062 -0.588)" fill="#171412" fill-rule="evenodd"/>
    <g id="Group_4" data-name="Group 4" transform="translate(176.778 36.541)">
      <path id="Path_7" data-name="Path 7" d="M186.421,50.046h-3.032v1.7q0,.694-.822.694-.514,0-2.017-1.425t-1.5-1.915a.67.67,0,0,1,.771-.745h1.49V44.8q0-.926-.976-.925a.806.806,0,0,0-.9.925,1.707,1.707,0,0,0,.155.77l.077.156h-1.517a1.475,1.475,0,0,1-.128-.334,2.131,2.131,0,0,1-.129-.771q0-2.313,2.621-2.314a3.253,3.253,0,0,1,2.043.643,2.167,2.167,0,0,1,.834,1.824V48.35h3.032Z" transform="translate(-177.89 -36.658)" fill="#0066b5"/>
      <path id="Path_8" data-name="Path 8" d="M190.1,44.215h-1.593V55.188h-2.133V44.215h-1.9V42.6H190.1Z" transform="translate(-177.95 -36.66)" fill="#0066b5"/>
      <path id="Path_9" data-name="Path 9" d="M195.446,44.215h-1.593V55.188H191.72V44.215h-1.9V42.6h5.628Z" transform="translate(-177.998 -36.66)" fill="#0066b5"/>
      <path id="Path_10" data-name="Path 10" d="M205.515,44.215h-2.158v3.1q0,1.963-2.21,2.246-.232.027-.771.052l.155.231a22.08,22.08,0,0,0,3.494,4.163l-1.567,1.285-1.182-1.363a52.742,52.742,0,0,1-4.5-6.244q-.155-.256-.489-.771l1.645-1.079c.274.5.488.856.642,1.079a2.243,2.243,0,0,0,1.8,1.079.745.745,0,0,0,.745-.49,2.535,2.535,0,0,0,.1-.492V44.215H195.16V42.6h10.355Z" transform="translate(-178.047 -36.66)" fill="#0066b5"/>
      <path id="Path_11" data-name="Path 11" d="M211.924,44.215h-7.169V42.6h7.169Zm1.593,3.8h-4.5a1.534,1.534,0,0,0-.514.129,1.021,1.021,0,0,0-.513.977,5.2,5.2,0,0,0,1.592,3.263q1.362,1.541,1.721,1.541l-1.465,1.26a26.462,26.462,0,0,1-1.927-2.012,6.95,6.95,0,0,1-1.952-4.1,2.873,2.873,0,0,1,.655-1.882,2.106,2.106,0,0,1,1.708-.8h5.191Z" transform="translate(-178.134 -36.66)" fill="#0066b5"/>
      <path id="Path_12" data-name="Path 12" d="M217.254,44.215h-1.593V55.188h-2.132V44.215h-1.9V42.6h5.627Z" transform="translate(-178.197 -36.66)" fill="#0066b5"/>
      <path id="Path_13" data-name="Path 13" d="M222.573,44.161H220.98V55.134h-2.132V44.161h-1.9V42.543h1.9a10.911,10.911,0,0,0-.639-2.235q-1.024-2.235-2.865-2.235-1.764,0-1.764,1.7a5.081,5.081,0,0,0,.411,1.593q.437,1.156.8,1.311h-2.081a3.7,3.7,0,0,1-.771-1.388,5.078,5.078,0,0,1-.334-1.644,2.821,2.821,0,0,1,.95-2.288,3.567,3.567,0,0,1,2.39-.745q4.009,0,5.55,4.369.18.8.385,1.568h1.7Z" transform="translate(-178.196 -36.606)" fill="#0066b5"/>
      <path id="Path_14" data-name="Path 14" d="M231.073,52.131a6.211,6.211,0,0,1-2.6.694,4.891,4.891,0,0,1-3.559-1.311,4.683,4.683,0,0,1-1.349-3.521h.257a2.153,2.153,0,0,0,.258.026q2.363,0,2.363-1.81a3.072,3.072,0,0,0-.27-1.126,1.7,1.7,0,0,0-.629-.867h-3.237V42.6h7.168v1.618h-1.8a6.056,6.056,0,0,1,.411.671,3.634,3.634,0,0,1,.437,1.6,2.735,2.735,0,0,1-1.284,2.578,4.236,4.236,0,0,1-1.285.387,2.7,2.7,0,0,0,.334.928,2.2,2.2,0,0,0,1.979.928,4.01,4.01,0,0,0,1.978-.566,5.9,5.9,0,0,0,.822-.591Z" transform="translate(-178.294 -36.66)" fill="#0066b5"/>
      <path id="Path_15" data-name="Path 15" d="M234.81,44.215h-1.593V55.188h-2.132V44.215h-1.9V42.6h5.627Z" transform="translate(-178.356 -36.66)" fill="#0066b5"/>
      <path id="Path_16" data-name="Path 16" d="M256.929,42.674h-2.21a19.7,19.7,0,0,0-1.877-2.095q-2.234-2.094-4.084-2.094-2.622,0-2.622,2.348a2.838,2.838,0,0,0,.437,1.711h1.851v1.618h-1.619V55.136h-2.133V44.163H242.8V42.545h1.876a4.367,4.367,0,0,1-.462-1.927q0-3.752,4.6-3.752a6.85,6.85,0,0,1,3.932,1.49,15.712,15.712,0,0,1,3.006,2.8Q256.08,41.57,256.929,42.674Z" transform="translate(-178.48 -36.608)" fill="#0066b5"/>
      <path id="Path_17" data-name="Path 17" d="M254.125,44.215h-5.987V42.6h5.987Zm1.7,7.529a5.177,5.177,0,0,1-2.57.745,4.453,4.453,0,0,1-2.775-.821,3.055,3.055,0,0,1-1.208-2.57,2.877,2.877,0,0,1,1.156-2.389,4.086,4.086,0,0,1,2.6-.822,5.191,5.191,0,0,1,1.208.129.587.587,0,0,1,.232.076l.333,1.568a2.84,2.84,0,0,0-1.4-.359,2.146,2.146,0,0,0-1.425.475A1.631,1.631,0,0,0,251.4,49.1q0,1.9,2.067,1.9a2.86,2.86,0,0,0,1.68-.591,5.59,5.59,0,0,0,.673-.591Z" transform="translate(-178.529 -36.66)" fill="#0066b5"/>
      <path id="Path_18" data-name="Path 18" d="M259.444,44.215h-1.593V55.188h-2.132V44.215h-1.9V42.6h5.627Z" transform="translate(-178.58 -36.66)" fill="#0066b5"/>
      <path id="Path_19" data-name="Path 19" d="M268.59,44.215h-9.431V42.6h9.431Zm1.592,3.007h-6.476c-.205,0-.307.077-.307.231q0,.36.694,1.1a.949.949,0,0,0,.72.334,3.844,3.844,0,0,0,.924-.167,3.958,3.958,0,0,1,.951-.166,1.829,1.829,0,0,1,2.081,2.056,3.128,3.128,0,0,1-1.439,2.7,2.72,2.72,0,0,1-1.593.694,3.359,3.359,0,0,0,1.619,1.079L266.122,56.5a6.211,6.211,0,0,1-.745-.5l-.694-.526-1.053-1h-.694q-2.235,0-2.236-1.773a1.062,1.062,0,0,1,.346-.81,1.178,1.178,0,0,1,.831-.322,2.7,2.7,0,0,1,1.357.618q.281.205.793.616a.231.231,0,0,0,.2.077,3.674,3.674,0,0,0,1.176-.361,1.707,1.707,0,0,0,1.229-1.618q0-.642-.691-.643a4.535,4.535,0,0,0-.973.155,4.52,4.52,0,0,1-.971.155,2.84,2.84,0,0,1-2.009-1.31,3.892,3.892,0,0,1-1.061-2.288,1.262,1.262,0,0,1,.424-.976,1.456,1.456,0,0,1,1.015-.385h7.811Z" transform="translate(-178.629 -36.66)" fill="#0066b5"/>
      <path id="Path_20" data-name="Path 20" d="M273.94,44.215h-1.593V55.188h-2.134V44.215h-1.9V42.6h5.627Z" transform="translate(-178.712 -36.66)" fill="#0066b5"/>
      <path id="Path_21" data-name="Path 21" d="M279.281,44.215h-1.592V55.188h-2.133V44.215h-1.9V42.6h5.627Z" transform="translate(-178.76 -36.66)" fill="#0066b5"/>
      <path id="Path_22" data-name="Path 22" d="M286.114,44.215H279V42.6h7.118Zm1.619,4.754h-3.88v1.824q0,.617-.694.616-.592,0-1.7-1.323a3.891,3.891,0,0,1-1.1-1.94.857.857,0,0,1,.436-.8,1.748,1.748,0,0,1,.437-.156h6.5Z" transform="translate(-178.809 -36.66)" fill="#0066b5"/>
      <path id="Path_23" data-name="Path 23" d="M291.469,44.215h-1.593V55.188h-2.132V44.215h-1.9V42.6h5.627Z" transform="translate(-178.871 -36.66)" fill="#0066b5"/>
      <path id="Path_24" data-name="Path 24" d="M313.588,42.674h-2.21a19.746,19.746,0,0,0-1.876-2.095q-2.236-2.094-4.086-2.094-2.622,0-2.621,2.348a2.831,2.831,0,0,0,.437,1.711h1.85v1.618h-1.619V55.136h-2.132V44.163h-1.876V42.545h1.876a4.369,4.369,0,0,1-.463-1.927q0-3.752,4.6-3.752a6.85,6.85,0,0,1,3.932,1.49,15.684,15.684,0,0,1,3.006,2.8Q312.739,41.57,313.588,42.674Z" transform="translate(-178.995 -36.608)" fill="#0066b5"/>
      <path id="Path_25" data-name="Path 25" d="M314.664,44.215h-1.721a4.952,4.952,0,0,1,.411.646,3.808,3.808,0,0,1,.436,1.7,4.321,4.321,0,0,1-2.006,4.051,6.4,6.4,0,0,1-2.032.646l1.359,1.134a15.539,15.539,0,0,0,1.5,1.1,2.534,2.534,0,0,1,.336.231l-1.26,1.588q-1.926-1.541-3.109-2.6a31.868,31.868,0,0,1-2.492-2.416l1.361-1.362.8.745a3.021,3.021,0,0,0,.95.129,2.032,2.032,0,0,0,1.928-1.079,4.868,4.868,0,0,0,.334-1.08,4.49,4.49,0,0,1-1.7.411,3.447,3.447,0,0,1-2.132-.62,2.348,2.348,0,0,1-.925-1.993,2,2,0,0,1,.334-1.035,1.46,1.46,0,0,1,.155-.207H304.8V42.6h9.867Zm-3.058,1.466a2.954,2.954,0,0,0-.28-.771,1.634,1.634,0,0,0-1.5-.8,1.054,1.054,0,0,0-.828.36,1.27,1.27,0,0,0-.318.873,1.1,1.1,0,0,0,.407.9,1.513,1.513,0,0,0,.993.334,1.722,1.722,0,0,0,1.2-.436A1.488,1.488,0,0,0,311.607,45.681Z" transform="translate(-179.044 -36.66)" fill="#0066b5"/>
      <path id="Path_26" data-name="Path 26" d="M320.045,44.215h-1.593V55.188h-2.133V44.215h-1.9V42.6h5.628Z" transform="translate(-179.131 -36.66)" fill="#0066b5"/>
      <path id="Path_27" data-name="Path 27" d="M329.914,48.706c-.324.087-.589.156-.794.208a7.1,7.1,0,0,1-5.224-.64,1.357,1.357,0,0,0-.538.308,2.24,2.24,0,0,0-.87,1.8q0,1.8,2,1.8v-.412a1.663,1.663,0,0,1,.373-1.078,1.177,1.177,0,0,1,.963-.463q1.644,0,1.645,1.49a1.377,1.377,0,0,1-.463,1.079,2.511,2.511,0,0,1-.463.282l.566.822.874,1-1.414,1-.8-1.285-.668-1.028a2.611,2.611,0,0,1-.951.129,3.984,3.984,0,0,1-2.646-.976,3.068,3.068,0,0,1-1.157-2.442,3.2,3.2,0,0,1,1-2.338,5.3,5.3,0,0,1,1.028-.745,5.843,5.843,0,0,1-.591-.616,3.01,3.01,0,0,1-.617-1.851,2.124,2.124,0,0,1,.874-1.774,2.953,2.953,0,0,1,1.9-.616,3.533,3.533,0,0,1,2.171.72,2.258,2.258,0,0,1,.964,1.9,2.473,2.473,0,0,1-.694,1.619,6.485,6.485,0,0,1-.719.641,4.66,4.66,0,0,0,1.747.282,4.866,4.866,0,0,0,2.107-.488,2.71,2.71,0,0,0,.386-.205Zm-4.856-3.721q0-1.208-1.1-1.208a.9.9,0,0,0-1,1.028,1.689,1.689,0,0,0,.462,1.208,2.133,2.133,0,0,0,.463.36,2.911,2.911,0,0,0,.592-.36A1.362,1.362,0,0,0,325.058,44.985Z" transform="translate(-179.185 -36.658)" fill="#0066b5"/>
      <path id="Path_28" data-name="Path 28" d="M333.658,44.215h-1.593V55.188h-2.132V44.215h-1.9V42.6h5.627Z" transform="translate(-179.255 -36.66)" fill="#0066b5"/>
      <path id="Path_29" data-name="Path 29" d="M339,44.215h-1.593V55.188h-2.132V44.215h-1.9V42.6H339Z" transform="translate(-179.303 -36.66)" fill="#0066b5"/>
      <path id="Path_30" data-name="Path 30" d="M358.421,44.215h-1.7v4.309a1.925,1.925,0,0,1-.592,1.239,2.238,2.238,0,0,1-1.387.671l-1.465-1.316q1.231-.129,1.284-.619c.018-.155.027-.258.027-.31V44.215h-3.675v6l5.7,4.8a1.591,1.591,0,0,1,.363,1.232,1.721,1.721,0,0,1-.719,1.374,1.956,1.956,0,0,1-1.516.474l-1.26-1.156a4.866,4.866,0,0,0,.654-.025q.862-.156.863-.849a.508.508,0,0,0-.232-.488l-5.987-5.037V44.215h-1.8V42.6h11.434Z" transform="translate(-179.427 -36.66)" fill="#0066b5"/>
      <path id="Path_31" data-name="Path 31" d="M364.15,44.215h-5.987V42.6h5.987Zm1.7,7.529a5.171,5.171,0,0,1-2.57.745,4.453,4.453,0,0,1-2.775-.821,3.055,3.055,0,0,1-1.208-2.57,2.877,2.877,0,0,1,1.156-2.389,4.086,4.086,0,0,1,2.6-.822,5.2,5.2,0,0,1,1.208.129.584.584,0,0,1,.231.076l.334,1.568a2.84,2.84,0,0,0-1.4-.359,2.146,2.146,0,0,0-1.425.475,1.628,1.628,0,0,0-.57,1.323q0,1.9,2.068,1.9a2.861,2.861,0,0,0,1.68-.591,5.534,5.534,0,0,0,.672-.591Z" transform="translate(-179.529 -36.66)" fill="#0066b5"/>
      <path id="Path_32" data-name="Path 32" d="M369.468,44.215h-1.592V55.188h-2.133V44.215h-1.9V42.6h5.626Z" transform="translate(-179.58 -36.66)" fill="#0066b5"/>
      <path id="Path_33" data-name="Path 33" d="M368.1,40.45h-2.493V38.137H368.1Z" transform="translate(-179.596 -36.62)" fill="#0066b5"/>
      <path id="Path_34" data-name="Path 34" d="M392.283,44.189h-1.542v11h-2.132v-5.32a1.87,1.87,0,0,1-.729.18,3.791,3.791,0,0,1-.783-.112.683.683,0,0,1-.235-.068,3.59,3.59,0,0,1,.155.977,3.169,3.169,0,0,1-1.155,2.492,3.938,3.938,0,0,1-2.664,1q-2.127,0-4.023-2.466a6.38,6.38,0,0,1-1.512-2.6l1.8-.745a16.929,16.929,0,0,0,1.131,2.03q1.413,2.056,2.672,2.055,1.619,0,1.619-1.85t-2.235-1.85A2.416,2.416,0,0,0,381.9,49l-.72-1.593a1.772,1.772,0,0,0,.513.076,2.35,2.35,0,0,0,1.517-.513,1.66,1.66,0,0,0,.642-1.362q0-1.412-1.337-1.414a2.75,2.75,0,0,0-1.592.694,10.035,10.035,0,0,0-.771.72l-1.49-1.131a7.781,7.781,0,0,1,1.053-.951,4.948,4.948,0,0,1,2.879-.95,3.624,3.624,0,0,1,2.3.731,2.476,2.476,0,0,1,.937,2.069,2.654,2.654,0,0,1-1.208,2.287l.647.258a5.638,5.638,0,0,1,1.113.591.928.928,0,0,0,.569.155,3.772,3.772,0,0,0,1.655-.469v-4h-1.9V42.571h5.576Z" transform="translate(-179.706 -36.66)" fill="#0066b5"/>
      <path id="Path_35" data-name="Path 35" d="M399.249,44.215h-7.117V42.6h7.117Zm1.619,4.754h-3.879v1.824q0,.617-.694.616-.592,0-1.7-1.323a3.9,3.9,0,0,1-1.1-1.94.858.858,0,0,1,.437-.8,1.732,1.732,0,0,1,.437-.156h6.5Z" transform="translate(-179.837 -36.66)" fill="#0066b5"/>
      <path id="Path_36" data-name="Path 36" d="M404.6,44.215h-1.592V55.188h-2.133V44.215h-1.9V42.6H404.6Z" transform="translate(-179.9 -36.66)" fill="#0066b5"/>
      <path id="Path_37" data-name="Path 37" d="M404.885,57.922A2.764,2.764,0,0,1,403.5,60.44a5.449,5.449,0,0,1-2.929.72A5.711,5.711,0,0,1,397.1,60a8.915,8.915,0,0,1-1.207-1.156L397,57.665a4.962,4.962,0,0,0,.825.9,4.144,4.144,0,0,0,2.656.925q1.986,0,2.373-1.49a1.38,1.38,0,0,0,.051-.308q0-1.029-1.423-.9a1.675,1.675,0,0,0-1.112.539,1.264,1.264,0,0,0-.181.257l-1.267-1.258a3,3,0,0,1,2.751-1.259,3.447,3.447,0,0,1,2.235.745A2.631,2.631,0,0,1,404.885,57.922Z" transform="translate(-179.872 -36.774)" fill="#0066b5"/>
      <path id="Path_38" data-name="Path 38" d="M413.776,44.215h-2v3.092a2,2,0,0,1-.822,1.8,3.308,3.308,0,0,1-1,.386,5.436,5.436,0,0,1-.616.1,9.535,9.535,0,0,0,1.464,2.035q.514.618,1.235,1.442.23.259.667.721l-1.67,1.236L410.05,53.8a53.657,53.657,0,0,1-3.8-5.5q-.385-.641-.719-1.258l1.619-1.028a7.98,7.98,0,0,0,.488.976q.617,1,1.132,1,.872,0,.873-.983V44.215h-5.268V42.6h9.4Zm1.671,5.243h-2.39l-1.182-1.619h3.572Z" transform="translate(-179.949 -36.66)" fill="#0066b5"/>
      <path id="Path_39" data-name="Path 39" d="M419.126,44.215h-1.593V55.188H415.4V44.215h-1.9V42.6h5.627Z" transform="translate(-180.032 -36.66)" fill="#0066b5"/>
      <path id="Path_40" data-name="Path 40" d="M417.754,40.45h-2.491V38.137h2.491Z" transform="translate(-180.048 -36.62)" fill="#0066b5"/>
      <path id="Path_41" data-name="Path 41" d="M427.788,51.819a8.2,8.2,0,0,1-1.053.694,6.374,6.374,0,0,1-2.981.719,3.673,3.673,0,0,1-2.39-.77,2.711,2.711,0,0,1-1.027-2.235,2.311,2.311,0,0,1,.54-1.439,3.343,3.343,0,0,1,.565-.54,7.7,7.7,0,0,1-1.028-.874,3.709,3.709,0,0,1-1.028-2.569q0-2.442,2.723-2.442a2.677,2.677,0,0,1,1.94.732,2.542,2.542,0,0,1,.757,1.914,1.888,1.888,0,0,1-.025.36h-1.568v-.411q0-1.156-.913-1.156-.938,0-.937,1.183a2.907,2.907,0,0,0,.716,1.926,3.376,3.376,0,0,0,.715.616,4.7,4.7,0,0,1,1.84-.334h.767l.665,1.388H425.5q-3.084,0-3.084,1.721,0,1.387,1.644,1.387a4.227,4.227,0,0,0,2.082-.591q1.542-.872,1.645-1.413Z" transform="translate(-180.085 -36.658)" fill="#0066b5"/>
      <path id="Path_42" data-name="Path 42" d="M431.5,44.215H429.9V55.188H427.77V44.215h-1.9V42.6H431.5Z" transform="translate(-180.144 -36.66)" fill="#0066b5"/>
      <path id="Path_43" data-name="Path 43" d="M436.837,44.215h-1.593V55.188h-2.132V44.215h-1.9V42.6h5.627Z" transform="translate(-180.193 -36.66)" fill="#0066b5"/>
      <path id="Path_44" data-name="Path 44" d="M443.669,44.215h-7.117V42.6h7.117Zm1.619,4.754h-3.879v1.824q0,.617-.694.616-.593,0-1.7-1.323a3.9,3.9,0,0,1-1.1-1.94.857.857,0,0,1,.437-.8,1.733,1.733,0,0,1,.437-.156h6.5Z" transform="translate(-180.241 -36.66)" fill="#0066b5"/>
      <path id="Path_45" data-name="Path 45" d="M449.024,44.215h-1.592V55.188H445.3V44.215h-1.9V42.6h5.627Z" transform="translate(-180.303 -36.66)" fill="#0066b5"/>
      <path id="Path_46" data-name="Path 46" d="M466.416,44.215h-2v3.092a1.994,1.994,0,0,1-.823,1.8,3.309,3.309,0,0,1-1,.386,5.439,5.439,0,0,1-.616.1,9.531,9.531,0,0,0,1.464,2.035q.514.618,1.234,1.442.232.259.668.721l-1.67,1.236-.977-1.233a54,54,0,0,1-3.8-5.5q-.385-.641-.718-1.258l1.618-1.028a8.083,8.083,0,0,0,.488.976q.617,1,1.131,1,.872,0,.874-.983V44.215h-5.268V42.6h9.4Zm1.67,5.243H465.7l-1.181-1.619h3.571Z" transform="translate(-180.427 -36.66)" fill="#0066b5"/>
      <path id="Path_47" data-name="Path 47" d="M471.765,44.215h-1.592V55.188H468.04V44.215h-1.9V42.6h5.626Z" transform="translate(-180.51 -36.66)" fill="#0066b5"/>
      <path id="Path_48" data-name="Path 48" d="M470.394,40.45H467.9V38.137h2.492Z" transform="translate(-180.526 -36.62)" fill="#0066b5"/>
      <path id="Path_49" data-name="Path 49" d="M480.937,44.215h-2v3.092a1.994,1.994,0,0,1-.823,1.8,3.306,3.306,0,0,1-1,.386,5.426,5.426,0,0,1-.616.1,9.519,9.519,0,0,0,1.464,2.035q.513.618,1.234,1.442.23.259.668.721l-1.671,1.236-.976-1.233a53.656,53.656,0,0,1-3.8-5.5q-.385-.641-.719-1.258l1.619-1.028a8.287,8.287,0,0,0,.488.976q.617,1,1.132,1,.872,0,.874-.983V44.215h-5.269V42.6h9.4Zm1.671,5.243h-2.39l-1.182-1.619h3.572Z" transform="translate(-180.559 -36.66)" fill="#0066b5"/>
      <path id="Path_50" data-name="Path 50" d="M490.632,51.383a5.986,5.986,0,0,1-4.266,1.541,5.51,5.51,0,0,1-4.137-1.67,4.291,4.291,0,0,1-1.362-3.006c.121.035.318.077.594.129a9.938,9.938,0,0,0,1.4.154,3.36,3.36,0,0,0,2.066-.616,2.218,2.218,0,0,0,.929-1.877q0-2.054-1.711-2.055-1.09,0-1.089.951a.8.8,0,0,0,.308.641,1.051,1.051,0,0,0,.694.258v1.413a2.436,2.436,0,0,1-1.131-.154,2.252,2.252,0,0,1-1.8-2.287,2.14,2.14,0,0,1,.976-1.825,3.364,3.364,0,0,1,2.03-.616,3.863,3.863,0,0,1,3.854,3.855,3.631,3.631,0,0,1-1.195,2.711,3.875,3.875,0,0,1-2.762,1.144,2.851,2.851,0,0,0,.539.617,2.949,2.949,0,0,0,1.9.616,4.563,4.563,0,0,0,2.93-1.234,4,4,0,0,0,1.234-1.413Z" transform="translate(-180.644 -36.658)" fill="#0066b5"/>
      <path id="Path_51" data-name="Path 51" d="M494.4,44.215h-1.592V55.188h-2.133V44.215h-1.9V42.6H494.4Z" transform="translate(-180.716 -36.66)" fill="#0066b5"/>
      <path id="Path_52" data-name="Path 52" d="M499.745,44.215h-1.593V55.188H496.02V44.215h-1.9V42.6h5.627Z" transform="translate(-180.765 -36.66)" fill="#0066b5"/>
      <path id="Path_53" data-name="Path 53" d="M506.578,44.215H499.46V42.6h7.118ZM508.2,48.97h-3.879v1.824q0,.617-.694.616-.592,0-1.7-1.323a3.9,3.9,0,0,1-1.1-1.94.858.858,0,0,1,.437-.8,1.729,1.729,0,0,1,.437-.156h6.5Z" transform="translate(-180.813 -36.66)" fill="#0066b5"/>
      <path id="Path_54" data-name="Path 54" d="M511.932,44.215H510.34V55.188h-2.132V44.215h-1.9V42.6h5.626Z" transform="translate(-180.875 -36.66)" fill="#0066b5"/>
    </g>
    <g id="Group_5" data-name="Group 5" transform="translate(515.756 42.657)">
      <path id="Path_55" data-name="Path 55" d="M527.737,50.231a4.824,4.824,0,0,1-.695.488,3.638,3.638,0,0,1-1.773.513,3.428,3.428,0,0,1-2.479-.9,3.222,3.222,0,0,1-.938-2.441V43.755h-1.875v-.977h5.781v.977h-2.621v4.368a2.208,2.208,0,0,0,.565,1.593,2.033,2.033,0,0,0,1.543.591,2.571,2.571,0,0,0,1.773-.847,6.447,6.447,0,0,0,.719-.848Z" transform="translate(-519.977 -42.778)" fill="#0066b5"/>
      <path id="Path_56" data-name="Path 56" d="M530.9,43.755h-2V55.163h-1.233V43.755H525.5v-.977h5.4Z" transform="translate(-520.027 -42.778)" fill="#0066b5"/>
      <path id="Path_57" data-name="Path 57" d="M530.917,57.821a2.663,2.663,0,0,1-1.079,2.235,3.909,3.909,0,0,1-2.442.744,6.733,6.733,0,0,1-3.776-1.233,10.284,10.284,0,0,1-1.465-1.259l.8-1.028a8.472,8.472,0,0,0,1.182,1.234,4.842,4.842,0,0,0,3.109,1.258,2.686,2.686,0,0,0,1.671-.526,1.75,1.75,0,0,0,.694-1.477,1.45,1.45,0,0,0-1.49-1.49,1.582,1.582,0,0,0-1.1.488,2.268,2.268,0,0,0-.385.489l-.976-.873a4.594,4.594,0,0,1,.694-.592,3.4,3.4,0,0,1,1.9-.592,2.612,2.612,0,0,1,1.888.759A2.491,2.491,0,0,1,530.917,57.821Z" transform="translate(-519.997 -42.891)" fill="#0066b5"/>
      <path id="Path_58" data-name="Path 58" d="M539.859,43.755h-1.233v4.574a3.069,3.069,0,0,1-.732,2.158,2.7,2.7,0,0,1-2.094.8,2.991,2.991,0,0,1-2.159-.784,2.783,2.783,0,0,1-.823-2.119V43.755h-2.107v-.977h9.147Zm-2.466,4.574V43.755h-3.34v4.626q0,2,1.671,2T537.393,48.329Z" transform="translate(-520.075 -42.778)" fill="#0066b5"/>
      <path id="Path_59" data-name="Path 59" d="M545.054,43.755h-2V55.163h-1.233V43.755h-2.159v-.977h5.4Z" transform="translate(-520.156 -42.778)" fill="#0066b5"/>
    </g>
    <g id="Group_6" data-name="Group 6" transform="translate(532.51 36.798)">
      <path id="Path_60" data-name="Path 60" d="M543.461,42.724h-1.433l-5.143-4.58,1.586-1.279Z" transform="translate(-536.885 -36.865)" fill="#0066b5"/>
    </g>
    <g id="Group_7" data-name="Group 7" transform="translate(177.321 70.11)">
      <path id="Path_61" data-name="Path 61" d="M178.438,81.886V70.679h2.247V81.886Z" transform="translate(-178.438 -70.485)" fill="#0066b5"/>
      <path id="Path_62" data-name="Path 62" d="M189.609,81.886,185.321,73.5h-.032v8.382h-2.151V70.679H185.9l4.271,8.382h.033V70.679h2.151V81.886Z" transform="translate(-178.481 -70.485)" fill="#0066b5"/>
      <path id="Path_63" data-name="Path 63" d="M195.082,81.886V70.679h3.1c4.224,0,6.44,1.814,6.44,5.6,0,3.773-2.2,5.6-6.423,5.6ZM198.6,80.12a3.84,3.84,0,0,0-.064-7.676h-1.2V80.12Z" transform="translate(-178.589 -70.485)" fill="#0066b5"/>
      <path id="Path_64" data-name="Path 64" d="M206.718,81.886V70.679h2.248V81.886Z" transform="translate(-178.695 -70.485)" fill="#0066b5"/>
      <path id="Path_65" data-name="Path 65" d="M219.181,81.886l-.964-2.569h-4.544l-.979,2.569h-2.329l4.368-11.207h2.537l4.4,11.207Zm-3.213-8.96h-.032l-1.621,4.625h3.275Z" transform="translate(-178.728 -70.485)" fill="#0066b5"/>
      <path id="Path_66" data-name="Path 66" d="M229.72,81.886,225.433,73.5H225.4v8.382h-2.151V70.679h2.762l4.272,8.382h.032V70.679h2.152V81.886Z" transform="translate(-178.845 -70.485)" fill="#0066b5"/>
      <path id="Path_67" data-name="Path 67" d="M239.634,81.886V70.679h2.247V81.886Z" transform="translate(-178.994 -70.485)" fill="#0066b5"/>
      <path id="Path_68" data-name="Path 68" d="M250.821,81.886,246.534,73.5H246.5v8.382H244.35V70.679h2.762l4.272,8.382h.032V70.679h2.151V81.886Z" transform="translate(-179.037 -70.485)" fill="#0066b5"/>
      <path id="Path_69" data-name="Path 69" d="M256.306,79.62a5.425,5.425,0,0,0,2.538.691c.818,0,1.991-.418,1.991-1.446,0-.85-.755-1.22-1.863-1.654-1.493-.578-3.051-1.2-3.051-3.308,0-2.408,1.814-3.421,3.935-3.421a8.407,8.407,0,0,1,2.665.4l-.208,1.847a5.822,5.822,0,0,0-2.28-.482,1.558,1.558,0,0,0-1.767,1.557c0,.851.964,1.172,1.895,1.542,1.51.562,3.019,1.253,3.019,3.34,0,2.167-1.542,3.388-4.223,3.388a9.942,9.942,0,0,1-2.858-.434Z" transform="translate(-179.142 -70.483)" fill="#0066b5"/>
      <path id="Path_70" data-name="Path 70" d="M267.464,81.886V72.445h-3.211V70.679h8.671v1.766h-3.212v9.441Z" transform="translate(-179.218 -70.485)" fill="#0066b5"/>
      <path id="Path_71" data-name="Path 71" d="M274.365,81.886V70.679h2.248V81.886Z" transform="translate(-179.31 -70.485)" fill="#0066b5"/>
      <path id="Path_72" data-name="Path 72" d="M281.207,81.886V72.445H278V70.679h8.671v1.766h-3.212v9.441Z" transform="translate(-179.343 -70.485)" fill="#0066b5"/>
      <path id="Path_73" data-name="Path 73" d="M295.127,70.679h2.248v7.209c0,2.747-1.493,4.192-4.576,4.192-3.212,0-4.577-1.558-4.577-4.206V70.679h2.248V77.2c0,2.007.722,3.114,2.329,3.114s2.328-1.108,2.328-3.114Z" transform="translate(-179.436 -70.485)" fill="#0066b5"/>
      <path id="Path_74" data-name="Path 74" d="M302.163,81.886V72.445h-3.212V70.679h8.672v1.766h-3.212v9.441Z" transform="translate(-179.533 -70.485)" fill="#0066b5"/>
      <path id="Path_75" data-name="Path 75" d="M309.259,81.886V70.679h6.615v1.766h-4.368v2.762h4v1.766h-4V80.12h4.4v1.766Z" transform="translate(-179.627 -70.485)" fill="#0066b5"/>
      <path id="Path_76" data-name="Path 76" d="M322.484,76.249c0-3.549,2.039-5.766,5.492-5.766,3.292,0,5.492,2.136,5.492,5.766,0,3.612-2.152,5.829-5.492,5.829C324.506,82.078,322.484,79.829,322.484,76.249Zm8.639,0c0-2.056-.964-4-3.163-4-2.024,0-3.131,1.766-3.131,4,0,2.375,1.092,4.062,3.147,4.062C330.047,80.311,331.123,78.609,331.123,76.249Z" transform="translate(-179.747 -70.483)" fill="#0066b5"/>
      <path id="Path_77" data-name="Path 77" d="M335.757,81.886V70.679h6.231v1.766h-3.983v2.762h3.79v1.766h-3.79v4.914Z" transform="translate(-179.868 -70.485)" fill="#0066b5"/>
      <path id="Path_78" data-name="Path 78" d="M348.621,79.62a5.425,5.425,0,0,0,2.538.691c.819,0,1.991-.418,1.991-1.446,0-.85-.754-1.22-1.863-1.654-1.492-.578-3.05-1.2-3.05-3.308,0-2.408,1.814-3.421,3.934-3.421a8.416,8.416,0,0,1,2.666.4l-.209,1.847a5.816,5.816,0,0,0-2.28-.482,1.557,1.557,0,0,0-1.767,1.557c0,.851.964,1.172,1.9,1.542,1.509.562,3.018,1.253,3.018,3.34,0,2.167-1.541,3.388-4.223,3.388a9.953,9.953,0,0,1-2.858-.434Z" transform="translate(-179.981 -70.483)" fill="#0066b5"/>
      <path id="Path_79" data-name="Path 79" d="M365.9,81.724a11.522,11.522,0,0,1-2.553.354c-3.838,0-6.15-1.991-6.15-5.6,0-3.789,2.3-5.99,6.15-5.99a7.441,7.441,0,0,1,2.537.467l-.16,1.895a4.634,4.634,0,0,0-2.425-.594,3.746,3.746,0,0,0-3.758,4.062,3.686,3.686,0,0,0,3.806,4,6.275,6.275,0,0,0,2.457-.465Z" transform="translate(-180.063 -70.483)" fill="#0066b5"/>
      <path id="Path_80" data-name="Path 80" d="M367.572,81.886V70.679h2.248V81.886Z" transform="translate(-180.157 -70.485)" fill="#0066b5"/>
      <path id="Path_81" data-name="Path 81" d="M372.4,81.886V70.679h6.616v1.766h-4.368v2.762h4v1.766h-4V80.12h4.4v1.766Z" transform="translate(-180.201 -70.485)" fill="#0066b5"/>
      <path id="Path_82" data-name="Path 82" d="M387.884,81.886,383.6,73.5h-.032v8.382h-2.152V70.679h2.762l4.272,8.382h.032V70.679h2.152V81.886Z" transform="translate(-180.283 -70.485)" fill="#0066b5"/>
      <path id="Path_83" data-name="Path 83" d="M401.509,81.724a11.538,11.538,0,0,1-2.554.354c-3.838,0-6.15-1.991-6.15-5.6,0-3.789,2.3-5.99,6.15-5.99a7.438,7.438,0,0,1,2.537.467l-.161,1.895a4.633,4.633,0,0,0-2.424-.594,3.745,3.745,0,0,0-3.758,4.062,3.685,3.685,0,0,0,3.805,4,6.275,6.275,0,0,0,2.456-.465Z" transform="translate(-180.387 -70.483)" fill="#0066b5"/>
      <path id="Path_84" data-name="Path 84" d="M403.372,81.886V70.679h6.616v1.766H405.62v2.762h4v1.766h-4V80.12h4.4v1.766Z" transform="translate(-180.483 -70.485)" fill="#0066b5"/>
      <path id="Path_85" data-name="Path 85" d="M417.132,81.886V70.679h6.616v1.766h-4.369v2.762h4v1.766h-4V80.12h4.4v1.766Z" transform="translate(-180.608 -70.485)" fill="#0066b5"/>
      <path id="Path_86" data-name="Path 86" d="M426.272,81.886V70.679h3.1c4.223,0,6.439,1.814,6.439,5.6,0,3.773-2.2,5.6-6.423,5.6Zm3.517-1.766a3.84,3.84,0,0,0-.063-7.676h-1.2V80.12Z" transform="translate(-180.691 -70.485)" fill="#0066b5"/>
      <path id="Path_87" data-name="Path 87" d="M444.927,70.679h2.25v7.209c0,2.747-1.494,4.192-4.577,4.192-3.212,0-4.577-1.558-4.577-4.206V70.679h2.248V77.2c0,2.007.722,3.114,2.329,3.114s2.328-1.108,2.328-3.114Z" transform="translate(-180.798 -70.485)" fill="#0066b5"/>
      <path id="Path_88" data-name="Path 88" d="M458.087,81.724a11.536,11.536,0,0,1-2.554.354c-3.838,0-6.149-1.991-6.149-5.6,0-3.789,2.3-5.99,6.149-5.99a7.437,7.437,0,0,1,2.537.467l-.16,1.895a4.633,4.633,0,0,0-2.424-.594,3.745,3.745,0,0,0-3.758,4.062,3.685,3.685,0,0,0,3.805,4,6.276,6.276,0,0,0,2.457-.465Z" transform="translate(-180.901 -70.483)" fill="#0066b5"/>
      <path id="Path_89" data-name="Path 89" d="M467.615,81.886l-.962-2.569h-4.544l-.981,2.569H458.8l4.368-11.207h2.538l4.4,11.207Zm-3.211-8.96h-.033l-1.622,4.625h3.277Z" transform="translate(-180.986 -70.485)" fill="#0066b5"/>
      <path id="Path_90" data-name="Path 90" d="M472.546,81.886V72.445h-3.212V70.679H478v1.766h-3.21v9.441Z" transform="translate(-181.082 -70.485)" fill="#0066b5"/>
      <path id="Path_91" data-name="Path 91" d="M479.446,81.886V70.679h2.248V81.886Z" transform="translate(-181.174 -70.485)" fill="#0066b5"/>
      <path id="Path_92" data-name="Path 92" d="M483.71,76.249c0-3.549,2.039-5.766,5.492-5.766,3.292,0,5.492,2.136,5.492,5.766,0,3.612-2.152,5.829-5.492,5.829C485.733,82.078,483.71,79.829,483.71,76.249Zm8.639,0c0-2.056-.963-4-3.164-4-2.022,0-3.13,1.766-3.13,4,0,2.375,1.092,4.062,3.147,4.062C491.274,80.311,492.349,78.609,492.349,76.249Z" transform="translate(-181.213 -70.483)" fill="#0066b5"/>
      <path id="Path_93" data-name="Path 93" d="M503.341,81.886,499.054,73.5h-.032v8.382H496.87V70.679h2.762l4.272,8.382h.032V70.679h2.152V81.886Z" transform="translate(-181.332 -70.485)" fill="#0066b5"/>
      <path id="Path_94" data-name="Path 94" d="M520.839,81.886l-.963-2.569h-4.544l-.98,2.569h-2.329l4.369-11.207h2.537l4.4,11.207Zm-3.21-8.96h-.034l-1.621,4.625h3.276Z" transform="translate(-181.47 -70.485)" fill="#0066b5"/>
      <path id="Path_95" data-name="Path 95" d="M531.378,81.886,527.091,73.5h-.032v8.382h-2.152V70.679h2.762l4.272,8.382h.032V70.679h2.152V81.886Z" transform="translate(-181.587 -70.485)" fill="#0066b5"/>
      <path id="Path_96" data-name="Path 96" d="M536.852,81.886V70.679h3.1c4.223,0,6.439,1.814,6.439,5.6,0,3.773-2.2,5.6-6.423,5.6Zm3.516-1.766a3.84,3.84,0,0,0-.063-7.676H539.1V80.12Z" transform="translate(-181.696 -70.485)" fill="#0066b5"/>
      <path id="Path_97" data-name="Path 97" d="M558.984,81.886l-1.3-3.372c-.322-.851-.546-1.284-1.59-1.284h-.738v4.656h-2.248V70.679h3.517c3.629,0,4.192,1.525,4.192,3.034a2.565,2.565,0,0,1-2.313,2.6v.032c.482.033.9.45,1.237,1.269l1.75,4.271Zm-2.762-6.423c1.926,0,2.247-.819,2.247-1.558,0-.578-.175-1.461-2.15-1.461h-.964v3.018Z" transform="translate(-181.844 -70.485)" fill="#0066b5"/>
      <path id="Path_98" data-name="Path 98" d="M563.317,81.886V70.679h6.616v1.766h-4.368v2.762h4v1.766h-4V80.12h4.4v1.766Z" transform="translate(-181.936 -70.485)" fill="#0066b5"/>
      <path id="Path_99" data-name="Path 99" d="M572.472,79.62a5.413,5.413,0,0,0,2.536.691c.819,0,1.992-.418,1.992-1.446,0-.85-.755-1.22-1.863-1.654-1.494-.578-3.051-1.2-3.051-3.308,0-2.408,1.815-3.421,3.935-3.421a8.408,8.408,0,0,1,2.665.4l-.208,1.847a5.823,5.823,0,0,0-2.281-.482,1.558,1.558,0,0,0-1.766,1.557c0,.851.964,1.172,1.895,1.542,1.51.562,3.019,1.253,3.019,3.34,0,2.167-1.542,3.388-4.223,3.388a9.948,9.948,0,0,1-2.858-.434Z" transform="translate(-182.016 -70.483)" fill="#0066b5"/>
      <path id="Path_100" data-name="Path 100" d="M581.582,81.886V70.679H588.2v1.766H583.83v2.762h4v1.766h-4V80.12h4.4v1.766Z" transform="translate(-182.102 -70.485)" fill="#0066b5"/>
      <path id="Path_101" data-name="Path 101" d="M598.371,81.886l-.963-2.569h-4.544l-.98,2.569h-2.328l4.368-11.207h2.537l4.4,11.207Zm-3.21-8.96h-.033l-1.622,4.625h3.277Z" transform="translate(-182.175 -70.485)" fill="#0066b5"/>
      <path id="Path_102" data-name="Path 102" d="M608.236,81.886l-1.3-3.372c-.321-.851-.545-1.284-1.59-1.284h-.738v4.656h-2.248V70.679h3.517c3.629,0,4.192,1.525,4.192,3.034a2.565,2.565,0,0,1-2.313,2.6v.032c.482.033.9.45,1.237,1.269l1.75,4.271Zm-2.762-6.423c1.926,0,2.247-.819,2.247-1.558,0-.578-.175-1.461-2.15-1.461h-.964v3.018Z" transform="translate(-182.291 -70.485)" fill="#0066b5"/>
      <path id="Path_103" data-name="Path 103" d="M620.722,81.724a11.536,11.536,0,0,1-2.554.354c-3.838,0-6.15-1.991-6.15-5.6,0-3.789,2.3-5.99,6.15-5.99a7.437,7.437,0,0,1,2.537.467l-.161,1.895a4.632,4.632,0,0,0-2.424-.594,3.745,3.745,0,0,0-3.758,4.062,3.685,3.685,0,0,0,3.805,4,6.278,6.278,0,0,0,2.456-.465Z" transform="translate(-182.379 -70.483)" fill="#0066b5"/>
      <path id="Path_104" data-name="Path 104" d="M629.345,81.886V76.972h-4.5v4.914H622.6V70.679h2.247v4.527h4.5V70.679h2.25V81.886Z" transform="translate(-182.475 -70.485)" fill="#0066b5"/>
      <path id="Path_105" data-name="Path 105" d="M639.153,81.886V70.679h2.779c2.151,0,3.451,1.124,3.451,3.179,0,2.007-1.476,3.18-3.563,3.18h-1.559v4.849Zm2.152-5.813c2.424,0,2.97-.964,2.97-2.216a2.008,2.008,0,0,0-2.2-2.217h-1.814v4.432Z" transform="translate(-182.626 -70.485)" fill="#0066b5"/>
      <path id="Path_106" data-name="Path 106" d="M654.307,70.679h1.108v7.338A4.063,4.063,0,1,1,647.289,78V70.679H648.4v7.338a2.96,2.96,0,1,0,5.91-.049Z" transform="translate(-182.7 -70.485)" fill="#0066b5"/>
      <path id="Path_107" data-name="Path 107" d="M664.891,81.886l-5.6-9.666h-.031v9.666h-1.109V70.679h1.4l5.7,9.859h.031V70.679h1.108V81.886Z" transform="translate(-182.798 -70.485)" fill="#0066b5"/>
      <path id="Path_108" data-name="Path 108" d="M669.217,81.886V70.679h5.491v.962h-4.384v4h4.159V76.6h-4.159v4.319H674.9v.963Z" transform="translate(-182.899 -70.485)" fill="#0066b5"/>
    </g>
    <g id="Group_8" data-name="Group 8" transform="translate(176.449 95.406)">
      <path id="Path_109" data-name="Path 109" d="M184.178,104.284h-4.441l-.889,2.512h-1.29l3.566-9.856h1.68l3.581,9.856h-1.318Zm-.388-1.083-.458-1.291c-.542-1.485-1.028-2.8-1.388-4.011-.361,1.208-.832,2.526-1.361,4.025l-.458,1.277Z" transform="translate(-177.558 -96.019)" fill="#1a1818"/>
      <path id="Path_110" data-name="Path 110" d="M193.306,102.143v4.678h-1.193v-4.3c0-1.124-.555-1.707-1.569-1.707a1.743,1.743,0,0,0-1.763,1.777v4.234h-1.194V99.992h1.125v.875a2.45,2.45,0,0,1,2.151-1.069A2.226,2.226,0,0,1,193.306,102.143Z" transform="translate(-177.649 -96.045)" fill="#1a1818"/>
      <path id="Path_111" data-name="Path 111" d="M204.315,104.284h-4.441l-.888,2.512H197.7l3.566-9.856h1.681l3.581,9.856H205.2Zm-.388-1.083-.458-1.291c-.541-1.485-1.028-2.8-1.388-4.011-.361,1.208-.832,2.526-1.361,4.025l-.458,1.277Z" transform="translate(-177.741 -96.019)" fill="#1a1818"/>
      <path id="Path_112" data-name="Path 112" d="M213.16,99.994v6.829h-1.11v-.847a2.312,2.312,0,0,1-2.068,1.041,2.123,2.123,0,0,1-2.43-2.236V99.994h1.194v4.5a1.316,1.316,0,0,0,1.43,1.5,1.687,1.687,0,0,0,1.791-1.832V99.994Z" transform="translate(-177.831 -96.047)" fill="#1a1818"/>
      <path id="Path_113" data-name="Path 113" d="M218.754,106.69a4.153,4.153,0,0,1-1.4.237c-1.3,0-1.762-.624-1.762-1.707v-4.345h-1.277v-.9h1.277v-2.29h1.193v2.29h1.846v.9h-1.846v4.205c0,.611.236.833.806.833a3.67,3.67,0,0,0,.985-.166Z" transform="translate(-177.892 -96.026)" fill="#1a1818"/>
      <path id="Path_114" data-name="Path 114" d="M226.046,103.406a3.387,3.387,0,1,1-3.372-3.608A3.339,3.339,0,0,1,226.046,103.406Zm-5.537,0c0,1.542.846,2.61,2.165,2.61s2.151-1.068,2.151-2.61-.833-2.608-2.151-2.608S220.509,101.866,220.509,103.406Z" transform="translate(-177.937 -96.045)" fill="#1a1818"/>
      <path id="Path_115" data-name="Path 115" d="M233.242,102.143v4.678h-1.194v-4.3c0-1.124-.555-1.707-1.568-1.707a1.742,1.742,0,0,0-1.763,1.777v4.234h-1.194V99.992h1.125v.875A2.449,2.449,0,0,1,230.8,99.8,2.226,2.226,0,0,1,233.242,102.143Z" transform="translate(-178.012 -96.045)" fill="#1a1818"/>
      <path id="Path_116" data-name="Path 116" d="M241.439,103.406a3.387,3.387,0,1,1-3.373-3.608A3.339,3.339,0,0,1,241.439,103.406Zm-5.538,0c0,1.542.847,2.61,2.165,2.61s2.152-1.068,2.152-2.61-.833-2.608-2.152-2.608S235.9,101.866,235.9,103.406Z" transform="translate(-178.077 -96.045)" fill="#1a1818"/>
      <path id="Path_117" data-name="Path 117" d="M252.341,102.06v4.761h-1.194v-4.428c0-.985-.43-1.582-1.361-1.582a1.567,1.567,0,0,0-1.568,1.722v4.289h-1.194v-4.428c0-.985-.431-1.582-1.361-1.582a1.558,1.558,0,0,0-1.555,1.722v4.289h-1.193V99.992h1.124v.818A2.134,2.134,0,0,1,246,99.8a2.065,2.065,0,0,1,1.971,1.111,2.342,2.342,0,0,1,2.1-1.111A2.1,2.1,0,0,1,252.341,102.06Z" transform="translate(-178.152 -96.045)" fill="#1a1818"/>
      <path id="Path_118" data-name="Path 118" d="M260.586,103.406a3.387,3.387,0,1,1-3.373-3.608A3.34,3.34,0,0,1,260.586,103.406Zm-5.538,0c0,1.542.846,2.61,2.165,2.61s2.151-1.068,2.151-2.61-.833-2.608-2.151-2.608S255.048,101.866,255.048,103.406Z" transform="translate(-178.251 -96.045)" fill="#1a1818"/>
      <path id="Path_119" data-name="Path 119" d="M267.618,99.994v6.829h-1.111v-.847a2.311,2.311,0,0,1-2.068,1.041,2.122,2.122,0,0,1-2.429-2.236V99.994H263.2v4.5a1.316,1.316,0,0,0,1.429,1.5,1.686,1.686,0,0,0,1.791-1.832V99.994Z" transform="translate(-178.326 -96.047)" fill="#1a1818"/>
      <path id="Path_120" data-name="Path 120" d="M274.624,100.8l-.652.8a3.13,3.13,0,0,0-2.151-.833c-.931,0-1.5.431-1.5,1.014s.584.735,1.833,1.013c1.777.4,2.581.889,2.581,2.1,0,1.263-1.083,2.124-2.735,2.124a4.284,4.284,0,0,1-3.15-1.277l.707-.777a3.468,3.468,0,0,0,2.456,1.068c.889,0,1.555-.4,1.555-1.082,0-.75-.818-.958-1.915-1.194-1.818-.389-2.484-.792-2.484-1.929,0-1.193,1.069-2.026,2.652-2.026A4.034,4.034,0,0,1,274.624,100.8Z" transform="translate(-178.388 -96.045)" fill="#1a1818"/>
      <path id="Path_121" data-name="Path 121" d="M280.963,106.8h-1.277V96.94h1.277Z" transform="translate(-178.486 -96.019)" fill="#1a1818"/>
      <path id="Path_122" data-name="Path 122" d="M288.731,102.143v4.678h-1.193v-4.3c0-1.124-.555-1.707-1.569-1.707a1.742,1.742,0,0,0-1.763,1.777v4.234h-1.194V99.992h1.125v.875a2.45,2.45,0,0,1,2.151-1.069A2.226,2.226,0,0,1,288.731,102.143Z" transform="translate(-178.517 -96.045)" fill="#1a1818"/>
      <path id="Path_123" data-name="Path 123" d="M295.7,100.8l-.652.8a3.129,3.129,0,0,0-2.151-.833c-.931,0-1.5.431-1.5,1.014s.583.735,1.832,1.013c1.777.4,2.582.889,2.582,2.1,0,1.263-1.083,2.124-2.735,2.124a4.288,4.288,0,0,1-3.151-1.277l.709-.777a3.467,3.467,0,0,0,2.456,1.068c.888,0,1.555-.4,1.555-1.082,0-.75-.818-.958-1.915-1.194-1.818-.389-2.485-.792-2.485-1.929,0-1.193,1.069-2.026,2.652-2.026A4.031,4.031,0,0,1,295.7,100.8Z" transform="translate(-178.579 -96.045)" fill="#1a1818"/>
      <path id="Path_124" data-name="Path 124" d="M301.124,106.69a4.152,4.152,0,0,1-1.4.237c-1.3,0-1.763-.624-1.763-1.707v-4.345h-1.277v-.9h1.277v-2.29h1.193v2.29H301v.9h-1.846v4.205c0,.611.236.833.806.833a3.671,3.671,0,0,0,.985-.166Z" transform="translate(-178.641 -96.026)" fill="#1a1818"/>
      <path id="Path_125" data-name="Path 125" d="M303.454,98.623h-1.193V97.192h1.193Zm0,8.175h-1.193V99.969h1.193Z" transform="translate(-178.692 -96.022)" fill="#1a1818"/>
      <path id="Path_126" data-name="Path 126" d="M309,106.69a4.156,4.156,0,0,1-1.4.237c-1.3,0-1.763-.624-1.763-1.707v-4.345h-1.277v-.9h1.277v-2.29h1.194v2.29h1.846v.9h-1.846v4.205c0,.611.236.833.8.833a3.665,3.665,0,0,0,.985-.166Z" transform="translate(-178.712 -96.026)" fill="#1a1818"/>
      <path id="Path_127" data-name="Path 127" d="M315.67,99.994v6.829h-1.11v-.847a2.314,2.314,0,0,1-2.068,1.041,2.123,2.123,0,0,1-2.43-2.236V99.994h1.194v4.5a1.316,1.316,0,0,0,1.429,1.5,1.687,1.687,0,0,0,1.792-1.832V99.994Z" transform="translate(-178.762 -96.047)" fill="#1a1818"/>
      <path id="Path_128" data-name="Path 128" d="M321.264,106.69a4.157,4.157,0,0,1-1.4.237c-1.3,0-1.763-.624-1.763-1.707v-4.345h-1.277v-.9H318.1v-2.29h1.194v2.29h1.846v.9h-1.846v4.205c0,.611.236.833.8.833a3.677,3.677,0,0,0,.986-.166Z" transform="translate(-178.824 -96.026)" fill="#1a1818"/>
      <path id="Path_129" data-name="Path 129" d="M323.594,98.623H322.4V97.192h1.194Zm0,8.175H322.4V99.969h1.194Z" transform="translate(-178.875 -96.022)" fill="#1a1818"/>
      <path id="Path_130" data-name="Path 130" d="M331.761,103.406a3.387,3.387,0,1,1-3.373-3.608A3.34,3.34,0,0,1,331.761,103.406Zm-5.538,0c0,1.542.846,2.61,2.165,2.61s2.151-1.068,2.151-2.61-.832-2.608-2.151-2.608S326.223,101.866,326.223,103.406Z" transform="translate(-178.898 -96.045)" fill="#1a1818"/>
      <path id="Path_131" data-name="Path 131" d="M338.956,102.143v4.678h-1.193v-4.3c0-1.124-.555-1.707-1.569-1.707a1.743,1.743,0,0,0-1.763,1.777v4.234h-1.194V99.992h1.125v.875a2.45,2.45,0,0,1,2.151-1.069A2.226,2.226,0,0,1,338.956,102.143Z" transform="translate(-178.973 -96.045)" fill="#1a1818"/>
      <path id="Path_132" data-name="Path 132" d="M350.384,103.406a3.387,3.387,0,1,1-3.373-3.608A3.339,3.339,0,0,1,350.384,103.406Zm-5.538,0c0,1.542.847,2.61,2.165,2.61s2.152-1.068,2.152-2.61-.833-2.608-2.152-2.608S344.846,101.866,344.846,103.406Z" transform="translate(-179.068 -96.045)" fill="#1a1818"/>
      <path id="Path_133" data-name="Path 133" d="M353.414,98.964v1h1.721v.9h-1.721v5.928H352.22v-5.928h-1.263v-.9h1.263V98.827a1.882,1.882,0,0,1,2.055-2.111,4.135,4.135,0,0,1,1.373.236l-.236.917a3.611,3.611,0,0,0-.944-.153C353.72,97.716,353.414,98.063,353.414,98.964Z" transform="translate(-179.134 -96.017)" fill="#1a1818"/>
      <path id="Path_134" data-name="Path 134" d="M363.323,106.69a4.156,4.156,0,0,1-1.4.237c-1.3,0-1.763-.624-1.763-1.707v-4.345h-1.277v-.9h1.277v-2.29h1.194v2.29H363.2v.9h-1.846v4.205c0,.611.236.833.8.833a3.676,3.676,0,0,0,.986-.166Z" transform="translate(-179.206 -96.026)" fill="#1a1818"/>
      <path id="Path_135" data-name="Path 135" d="M370.178,102.117V106.8h-1.193v-4.3c0-1.124-.555-1.707-1.569-1.707a1.743,1.743,0,0,0-1.763,1.777V106.8h-1.194V96.94h1.194v3.8a2.471,2.471,0,0,1,2.082-.971A2.232,2.232,0,0,1,370.178,102.117Z" transform="translate(-179.257 -96.019)" fill="#1a1818"/>
      <path id="Path_136" data-name="Path 136" d="M377.973,105.6a3.735,3.735,0,0,1-2.97,1.416,3.264,3.264,0,0,1-3.387-3.568c0-2.136,1.263-3.65,3.261-3.65,1.971,0,3.083,1.277,3.083,3.29,0,.139-.015.4-.029.527h-5.122a2.225,2.225,0,0,0,2.208,2.4,2.982,2.982,0,0,0,2.248-1.138Zm-5.135-2.873h3.942a1.844,1.844,0,0,0-1.915-1.971A2,2,0,0,0,372.838,102.727Z" transform="translate(-179.322 -96.045)" fill="#1a1818"/>
      <path id="Path_137" data-name="Path 137" d="M392.7,96.94V106.8h-1.25v-4.928c0-1.346.014-2.693.042-4.011-.43,1.276-.917,2.609-1.4,4.011l-1.72,4.928h-1.125l-1.763-4.928c-.514-1.429-.972-2.72-1.4-3.983q.041,1.978.042,4V106.8H382.9V96.94h2.041l1.554,4.345c.5,1.416.972,2.762,1.319,3.956.347-1.18.806-2.526,1.3-3.956l1.54-4.345Z" transform="translate(-179.424 -96.019)" fill="#1a1818"/>
      <path id="Path_138" data-name="Path 138" d="M396,98.623H394.8V97.192H396Zm0,8.175H394.8V99.969H396Z" transform="translate(-179.533 -96.022)" fill="#1a1818"/>
      <path id="Path_139" data-name="Path 139" d="M403.5,102.143v4.678H402.3v-4.3c0-1.124-.556-1.707-1.569-1.707a1.743,1.743,0,0,0-1.763,1.777v4.234h-1.194V99.992H398.9v.875a2.449,2.449,0,0,1,2.151-1.069A2.227,2.227,0,0,1,403.5,102.143Z" transform="translate(-179.56 -96.045)" fill="#1a1818"/>
      <path id="Path_140" data-name="Path 140" d="M406.511,98.623h-1.194V97.192h1.194Zm0,8.175h-1.194V99.969h1.194Z" transform="translate(-179.628 -96.022)" fill="#1a1818"/>
      <path id="Path_141" data-name="Path 141" d="M413.459,100.8l-.653.8a3.126,3.126,0,0,0-2.15-.833c-.93,0-1.5.431-1.5,1.014s.583.735,1.832,1.013c1.776.4,2.581.889,2.581,2.1,0,1.263-1.083,2.124-2.735,2.124a4.283,4.283,0,0,1-3.15-1.277l.707-.777a3.469,3.469,0,0,0,2.458,1.068c.888,0,1.554-.4,1.554-1.082,0-.75-.818-.958-1.915-1.194-1.818-.389-2.485-.792-2.485-1.929,0-1.193,1.069-2.026,2.652-2.026A4.033,4.033,0,0,1,413.459,100.8Z" transform="translate(-179.65 -96.045)" fill="#1a1818"/>
      <path id="Path_142" data-name="Path 142" d="M418.879,106.69a4.158,4.158,0,0,1-1.4.237c-1.305,0-1.762-.624-1.762-1.707v-4.345h-1.278v-.9h1.278v-2.29h1.193v2.29h1.846v.9h-1.846v4.205c0,.611.236.833.8.833a3.684,3.684,0,0,0,.986-.166Z" transform="translate(-179.711 -96.026)" fill="#1a1818"/>
      <path id="Path_143" data-name="Path 143" d="M423.916,100.118l-.223,1a3.191,3.191,0,0,0-.888-.14c-.917,0-1.6.792-1.6,2.18v3.664h-1.194V99.993h1.124v1.027a1.815,1.815,0,0,1,1.694-1.11A3.2,3.2,0,0,1,423.916,100.118Z" transform="translate(-179.762 -96.046)" fill="#1a1818"/>
      <path id="Path_144" data-name="Path 144" d="M430.861,99.994l-2.735,7.773c-.416,1.18-.86,1.735-2.053,1.735a4.059,4.059,0,0,1-1.056-.139l.209-.917a3.455,3.455,0,0,0,.736.083c.527,0,.86-.221,1.151-1.082l.083-.264-2.568-7.19h1.262l.764,2.262c.375,1.083.8,2.4,1.125,3.373.319-.972.735-2.276,1.11-3.4l.763-2.234Z" transform="translate(-179.804 -96.047)" fill="#1a1818"/>
      <path id="Path_145" data-name="Path 145" d="M441.622,103.406a3.387,3.387,0,1,1-3.373-3.608A3.34,3.34,0,0,1,441.622,103.406Zm-5.538,0c0,1.542.846,2.61,2.165,2.61s2.151-1.068,2.151-2.61-.833-2.608-2.151-2.608S436.084,101.866,436.084,103.406Z" transform="translate(-179.897 -96.045)" fill="#1a1818"/>
      <path id="Path_146" data-name="Path 146" d="M444.652,98.964v1h1.721v.9h-1.721v5.928h-1.194v-5.928H442.2v-.9h1.263V98.827a1.881,1.881,0,0,1,2.054-2.111,4.136,4.136,0,0,1,1.374.236l-.236.917a3.611,3.611,0,0,0-.944-.153C444.958,97.716,444.652,98.063,444.652,98.964Z" transform="translate(-179.963 -96.017)" fill="#1a1818"/>
      <path id="Path_147" data-name="Path 147" d="M457.566,98.009h-5.274v3.179h4.914v1.069h-4.914v3.47h5.4V106.8h-6.677V96.94h6.551Z" transform="translate(-180.044 -96.019)" fill="#1a1818"/>
      <path id="Path_148" data-name="Path 148" d="M465.076,96.94V106.8h-1.125V105.74a2.565,2.565,0,0,1-2.333,1.235c-1.748,0-3.012-1.429-3.012-3.6s1.291-3.6,3.041-3.6a2.537,2.537,0,0,1,2.234,1.1V96.94Zm-1.152,6.44c0-1.623-.889-2.566-2.124-2.566-1.179,0-1.97,1.027-1.97,2.566s.763,2.582,1.97,2.582C463.034,105.962,463.923,105.005,463.923,103.38Z" transform="translate(-180.113 -96.019)" fill="#1a1818"/>
      <path id="Path_149" data-name="Path 149" d="M472.512,99.994v6.829H471.4v-.847a2.311,2.311,0,0,1-2.068,1.041,2.122,2.122,0,0,1-2.429-2.236V99.994H468.1v4.5a1.317,1.317,0,0,0,1.431,1.5,1.686,1.686,0,0,0,1.79-1.832V99.994Z" transform="translate(-180.188 -96.047)" fill="#1a1818"/>
      <path id="Path_150" data-name="Path 150" d="M477.281,100.8c-1.4,0-2.082,1.276-2.082,2.608s.68,2.6,2.1,2.6c.735,0,1.235-.264,2.04-1.138l.792.666a3.325,3.325,0,0,1-2.832,1.485c-2.013,0-3.318-1.416-3.318-3.61a3.394,3.394,0,0,1,6.052-2.317l-.778.735A2.493,2.493,0,0,0,477.281,100.8Z" transform="translate(-180.252 -96.045)" fill="#1a1818"/>
      <path id="Path_151" data-name="Path 151" d="M486.987,102.074v4.747H485.9v-.847a2.655,2.655,0,0,1-2.318,1.069c-1.332,0-2.443-.555-2.443-1.915,0-1.6,1.471-2.068,3.179-2.374l1.527-.277v-.347c0-.861-.653-1.347-1.6-1.347a2.919,2.919,0,0,0-2.247,1.152l-.764-.68a3.687,3.687,0,0,1,2.97-1.458C486.015,99.8,486.987,100.741,486.987,102.074Zm-1.138,2.194v-.9l-1.25.251c-1.333.277-2.291.528-2.291,1.472,0,.624.527.971,1.4.971A1.9,1.9,0,0,0,485.85,104.268Z" transform="translate(-180.317 -96.045)" fill="#1a1818"/>
      <path id="Path_152" data-name="Path 152" d="M492.45,106.69a4.158,4.158,0,0,1-1.4.237c-1.3,0-1.762-.624-1.762-1.707v-4.345h-1.277v-.9h1.277v-2.29h1.193v2.29h1.846v.9h-1.846v4.205c0,.611.236.833.8.833a3.682,3.682,0,0,0,.987-.166Z" transform="translate(-180.38 -96.026)" fill="#1a1818"/>
      <path id="Path_153" data-name="Path 153" d="M494.781,98.623h-1.194V97.192h1.194Zm0,8.175h-1.194V99.969h1.194Z" transform="translate(-180.431 -96.022)" fill="#1a1818"/>
      <path id="Path_154" data-name="Path 154" d="M502.948,103.406a3.387,3.387,0,1,1-3.373-3.608A3.34,3.34,0,0,1,502.948,103.406Zm-5.538,0c0,1.542.846,2.61,2.165,2.61s2.151-1.068,2.151-2.61-.833-2.608-2.151-2.608S497.41,101.866,497.41,103.406Z" transform="translate(-180.454 -96.045)" fill="#1a1818"/>
      <path id="Path_155" data-name="Path 155" d="M510.143,102.143v4.678h-1.194v-4.3c0-1.124-.555-1.707-1.569-1.707a1.742,1.742,0,0,0-1.762,1.777v4.234h-1.194V99.992h1.125v.875A2.448,2.448,0,0,1,507.7,99.8,2.227,2.227,0,0,1,510.143,102.143Z" transform="translate(-180.529 -96.045)" fill="#1a1818"/>
      <path id="Path_156" data-name="Path 156" d="M513.216,106.873l-.8,1.708H511.8l.7-1.708h-.624v-1.367h1.337Z" transform="translate(-180.596 -96.097)" fill="#1a1818"/>
      <path id="Path_157" data-name="Path 157" d="M522.859,101.407h4.533v5.381h-.832l-.1-1.546A3.664,3.664,0,0,1,523.037,107c-3.12,0-4.875-2.274-4.875-5.486,0-3.15,1.858-5.484,5.009-5.484a5.448,5.448,0,0,1,4.236,2.007l-.669.684a4.635,4.635,0,0,0-3.6-1.784c-2.349,0-3.924,1.888-3.924,4.593s1.457,4.563,3.85,4.563a3.112,3.112,0,0,0,3.344-3.255v-.55h-3.552Z" transform="translate(-180.654 -96.011)" fill="#1a1818"/>
      <path id="Path_158" data-name="Path 158" d="M536.071,103.236a3.484,3.484,0,1,1-3.478-3.79A3.464,3.464,0,0,1,536.071,103.236Zm-5.93,0c0,1.724.951,2.958,2.452,2.958,1.516,0,2.468-1.234,2.468-2.958,0-1.754-.951-2.988-2.468-2.988C531.092,100.249,530.141,101.482,530.141,103.236Z" transform="translate(-180.754 -96.042)" fill="#1a1818"/>
      <path id="Path_159" data-name="Path 159" d="M543.033,99.641l-2.527,7.179h-1.278l-2.512-7.179h1.025l.967,2.779c.5,1.457.876,2.646,1.188,3.656.3-1.011.67-2.2,1.174-3.656l.966-2.779Z" transform="translate(-180.823 -96.044)" fill="#1a1818"/>
      <path id="Path_160" data-name="Path 160" d="M548.483,106.663a4.17,4.17,0,0,1-1.411.253c-1.323,0-1.754-.654-1.754-1.681v-4.889h-1.367v-.728h1.367V97.106h.981v2.512h2.051v.728H546.3V105.1c0,.713.253.981.907.981a3.554,3.554,0,0,0,1.1-.193Z" transform="translate(-180.888 -96.021)" fill="#1a1818"/>
      <path id="Path_161" data-name="Path 161" d="M550.965,106.873h-1.249v-1.367h1.249Z" transform="translate(-180.941 -96.097)" fill="#1a1818"/>
      <path id="Path_162" data-name="Path 162" d="M562.863,103.236a3.484,3.484,0,1,1-3.478-3.79A3.464,3.464,0,0,1,562.863,103.236Zm-5.93,0c0,1.724.951,2.958,2.452,2.958,1.516,0,2.467-1.234,2.467-2.958,0-1.754-.951-2.988-2.467-2.988C557.884,100.249,556.933,101.482,556.933,103.236Z" transform="translate(-180.997 -96.042)" fill="#1a1818"/>
      <path id="Path_163" data-name="Path 163" d="M565.865,98.331v1.277h1.9v.728h-1.9v6.451h-.982v-6.451h-1.367v-.728h1.367V98.166a1.919,1.919,0,0,1,2.066-2.155,4.108,4.108,0,0,1,1.427.254l-.237.772a3.251,3.251,0,0,0-1.056-.192C566.192,96.844,565.865,97.274,565.865,98.331Z" transform="translate(-181.066 -96.011)" fill="#1a1818"/>
      <path id="Path_164" data-name="Path 164" d="M574.033,106.789h-1.056V96.236h1.056Z" transform="translate(-181.152 -96.013)" fill="#1a1818"/>
      <path id="Path_165" data-name="Path 165" d="M582.141,101.9v4.92h-.98v-4.593c0-1.308-.654-1.962-1.813-1.962a2.021,2.021,0,0,0-2.036,2.036v4.519h-.981V99.639h.922v1a2.527,2.527,0,0,1,2.319-1.189A2.339,2.339,0,0,1,582.141,101.9Z" transform="translate(-181.183 -96.042)" fill="#1a1818"/>
      <path id="Path_166" data-name="Path 166" d="M590.415,96.236v10.553h-.921V105.57a2.743,2.743,0,0,1-2.542,1.4c-1.843,0-3.166-1.515-3.166-3.76s1.368-3.775,3.2-3.775a2.721,2.721,0,0,1,2.453,1.263V96.236Zm-.936,6.971c0-1.873-1.026-2.958-2.452-2.958-1.338,0-2.229,1.2-2.229,2.958,0,1.724.876,2.928,2.229,2.928C588.438,106.135,589.479,105.065,589.479,103.207Z" transform="translate(-181.25 -96.013)" fill="#1a1818"/>
      <path id="Path_167" data-name="Path 167" d="M593.479,98.023H592.5v-1.4h.981Zm0,8.77H592.5V99.614h.981Z" transform="translate(-181.33 -96.017)" fill="#1a1818"/>
      <path id="Path_168" data-name="Path 168" d="M601.061,101.765v5.054h-.907v-.951a2.82,2.82,0,0,1-2.5,1.173c-1.412,0-2.571-.564-2.571-1.976,0-1.694,1.59-2.156,3.463-2.5l1.561-.283v-.445c0-1.026-.758-1.59-1.843-1.59a3.111,3.111,0,0,0-2.422,1.249l-.625-.565a3.748,3.748,0,0,1,3-1.486C600.05,99.446,601.061,100.412,601.061,101.765Zm-.951,2.482v-1.2l-1.353.268c-1.561.312-2.705.595-2.705,1.739,0,.743.624,1.174,1.65,1.174A2.141,2.141,0,0,0,600.11,104.247Z" transform="translate(-181.353 -96.042)" fill="#1a1818"/>
    </g>
  </g>
</svg>
