<svg xmlns="http://www.w3.org/2000/svg" width="36" height="36" viewBox="0 0 36 36">
  <g id="Group_523" data-name="Group 523" transform="translate(-613.967 -268.094)">
    <g id="Group_521" data-name="Group 521" transform="translate(613.967 268.094)">
      <g id="Group_518" data-name="Group 518">
        <path id="Path_389" data-name="Path 389" d="M631.967,304.094a18,18,0,1,1,18-18A18.02,18.02,0,0,1,631.967,304.094Z" transform="translate(-613.967 -268.094)" fill="#333033"/>
      </g>
      <g id="Group_520" data-name="Group 520" transform="translate(9.428 13.86)">
        <g id="Group_519" data-name="Group 519">
          <path id="Path_390" data-name="Path 390" d="M646.986,294.585v6.721a.3.3,0,0,1-.3.3h-3.47a.3.3,0,0,1-.3-.3v-6.25c0-1.645-.587-2.768-2.062-2.768a2.228,2.228,0,0,0-2.088,1.488,2.792,2.792,0,0,0-.134.992v6.538a.3.3,0,0,1-.3.3h-3.468a.3.3,0,0,1-.3-.3c.007-1.665.043-9.741.007-11.639a.3.3,0,0,1,.3-.3h3.462a.3.3,0,0,1,.3.3V291.1c-.008.013-.019.027-.027.04h.027v-.04a4.042,4.042,0,0,1,3.669-2.023c2.679,0,4.687,1.75,4.687,5.51Zm-18.447,7.021h3.468a.3.3,0,0,0,.3-.3V289.662a.3.3,0,0,0-.3-.3h-3.468a.3.3,0,0,0-.3.3v11.643A.3.3,0,0,0,628.539,301.606Z" transform="translate(-628.238 -289.074)" fill="#fff"/>
        </g>
      </g>
    </g>
    <g id="Group_522" data-name="Group 522" transform="translate(623.13 276.326)">
      <path id="Path_391" data-name="Path 391" d="M632.194,282.734a2.179,2.179,0,1,1-2.179-2.179A2.18,2.18,0,0,1,632.194,282.734Z" transform="translate(-627.836 -280.555)" fill="#fff"/>
    </g>
  </g>
</svg>
