                                              <svg xmlns="http://www.w3.org/2000/svg" width="36" height="36" viewBox="0 0 36 36">
  <g id="Group_510" data-name="Group 510" transform="translate(-532.384 -202.947)">
    <g id="Group_502" data-name="Group 502" transform="translate(532.384 202.947)">
      <path id="Path_378" data-name="Path 378" d="M550.384,238.947a18,18,0,1,1,18-18A18.02,18.02,0,0,1,550.384,238.947Z" transform="translate(-532.384 -202.947)" fill="#333033"/>
    </g>
    <g id="Group_509" data-name="Group 509" transform="translate(539.827 212.307)">
      <g id="Group_504" data-name="Group 504">
        <path id="Path_380" data-name="Path 380" d="M564.572,219.21a8.6,8.6,0,0,1-2.12.605c.342-.057.845-.675,1.046-.925a3.9,3.9,0,0,0,.706-1.285c.018-.037.032-.083,0-.111a.121.121,0,0,0-.112.009,10.818,10.818,0,0,1-2.518.964.167.167,0,0,1-.173-.046,2.225,2.225,0,0,0-.22-.225,4.468,4.468,0,0,0-1.22-.747,4.246,4.246,0,0,0-1.87-.3,4.47,4.47,0,0,0-1.774.5,4.588,4.588,0,0,0-1.432,1.169,4.4,4.4,0,0,0-.855,1.712,4.621,4.621,0,0,0-.045,1.808c.013.1,0,.115-.087.1a13.445,13.445,0,0,1-8.65-4.4c-.1-.115-.156-.115-.239.009a4.385,4.385,0,0,0,.748,5.183c.169.16.344.321.531.468a4.4,4.4,0,0,1-1.669-.468c-.1-.064-.152-.027-.161.087a2.791,2.791,0,0,0,.027.5,4.437,4.437,0,0,0,2.734,3.536,2.581,2.581,0,0,0,.555.169,4.943,4.943,0,0,1-1.638.051c-.119-.022-.165.037-.119.152a4.6,4.6,0,0,0,3.44,2.88c.156.027.311.027.468.064-.009.015-.018.015-.028.028a5.452,5.452,0,0,1-2.349,1.245,8.416,8.416,0,0,1-3.567.456c-.193-.028-.233-.026-.285,0s-.007.078.055.128c.243.161.491.3.743.441a11.788,11.788,0,0,0,2.385.954,12.7,12.7,0,0,0,12.332-2.883c2.527-2.511,3.413-5.974,3.413-9.44,0-.136.16-.211.256-.283a8.284,8.284,0,0,0,1.67-1.745.5.5,0,0,0,.1-.334v-.018C564.65,219.154,564.657,219.172,564.572,219.21Z" transform="translate(-543.67 -217.139)" fill="#fff"/>
      </g>
      <g id="Group_505" data-name="Group 505" transform="translate(6.23 17.207)">
        <path id="Path_381" data-name="Path 381" d="M553.117,243.229Z" transform="translate(-553.117 -243.229)" fill="#fff" fill-rule="evenodd"/>
      </g>
      <g id="Group_506" data-name="Group 506" transform="translate(6.071 17.207)">
        <path id="Path_382" data-name="Path 382" d="M553.035,243.229c-.027,0-.346,0,0,0Z" transform="translate(-552.875 -243.229)" fill="#fff" fill-rule="evenodd"/>
      </g>
      <g id="Group_507" data-name="Group 507" transform="translate(6.937 17.209)">
        <path id="Path_383" data-name="Path 383" d="M554.189,243.248c0-.035.371,0,0,0C554.189,243.23,554.234,243.248,554.189,243.248Z" transform="translate(-554.189 -243.232)" fill="#fff" fill-rule="evenodd"/>
      </g>
      <g id="Group_508" data-name="Group 508" transform="translate(14.271 0.026)">
        <path id="Path_384" data-name="Path 384" d="M565.4,217.178a.076.076,0,0,1-.086,0Z" transform="translate(-565.309 -217.178)" fill="#fff" fill-rule="evenodd"/>
      </g>
    </g>
  </g>
</svg>
