			<svg xmlns="http://www.w3.org/2000/svg" width="36" height="36" viewBox="0 0 36 36">
  <g id="Group_517" data-name="Group 517" transform="translate(-695.824 -138.718)">
    <g id="Group_514" data-name="Group 514" transform="translate(695.824 138.718)">
      <path id="Path_387" data-name="Path 387" d="M713.824,174.718a18,18,0,1,1,18-18A18.021,18.021,0,0,1,713.824,174.718Z" transform="translate(-695.824 -138.718)" fill="#333033"/>
    </g>
    <g id="Group_516" data-name="Group 516" transform="translate(703.368 149.366)">
      <g id="Group_515" data-name="Group 515" transform="translate(0)">
        <path id="Path_388" data-name="Path 388" d="M728.5,159.486a4.623,4.623,0,0,0-4.622-4.622H711.885a4.622,4.622,0,0,0-4.622,4.622V165.1a4.622,4.622,0,0,0,4.622,4.623h11.989A4.622,4.622,0,0,0,728.5,165.1Zm-7.564,3.092-4.781,2.623c-.208.112-.4-.038-.4-.274v-5.384c0-.239.193-.389.4-.271l4.815,2.761A.313.313,0,0,1,720.933,162.578Z" transform="translate(-707.263 -154.863)" fill="#fff"/>
      </g>
    </g>
  </g>
</svg>
